<svg width="160" height="177" viewBox="0 0 160 177" fill="none" xmlns="http://www.w3.org/2000/svg">
<rect y="24" width="160" height="153" rx="10" fill="#0A0223"/>
<path d="M41.114 97V90.016H34.13V85.948H41.114V79H45.182V85.948H52.13V90.016H45.182V97H41.114ZM65.5636 97.432C64.0996 97.432 62.7076 97.168 61.3876 96.64C60.0916 96.088 58.9756 95.32 58.0396 94.336C57.1276 93.328 56.5036 92.14 56.1676 90.772L60.4516 89.26C60.8836 90.484 61.5436 91.42 62.4316 92.068C63.3196 92.692 64.3636 93.004 65.5636 93.004C66.5236 93.004 67.3516 92.824 68.0476 92.464C68.7676 92.104 69.3316 91.588 69.7396 90.916C70.1476 90.22 70.3516 89.404 70.3516 88.468C70.3516 87.532 70.1476 86.74 69.7396 86.092C69.3556 85.42 68.8036 84.904 68.0836 84.544C67.3636 84.184 66.5116 84.004 65.5276 84.004C65.0716 84.004 64.5916 84.052 64.0876 84.148C63.6076 84.244 63.1756 84.388 62.7916 84.58L61.6756 82.24L68.6236 74.32H57.6796V70.18H74.1316V74.032L67.1476 82.204L67.2196 80.368C68.8276 80.392 70.2316 80.74 71.4316 81.412C72.6316 82.084 73.5676 83.008 74.2396 84.184C74.9116 85.36 75.2476 86.74 75.2476 88.324C75.2476 90.052 74.8276 91.612 73.9876 93.004C73.1476 94.372 71.9956 95.452 70.5316 96.244C69.0676 97.036 67.4116 97.432 65.5636 97.432ZM89.7674 97.432C87.6314 97.432 85.7594 96.856 84.1514 95.704C82.5434 94.552 81.2834 92.932 80.3714 90.844C79.4834 88.756 79.0394 86.332 79.0394 83.572C79.0394 80.788 79.4834 78.364 80.3714 76.3C81.2594 74.236 82.5074 72.628 84.1154 71.476C85.7234 70.324 87.5954 69.748 89.7314 69.748C91.9154 69.748 93.7994 70.324 95.3834 71.476C96.9914 72.628 98.2514 74.248 99.1634 76.336C100.075 78.4 100.531 80.812 100.531 83.572C100.531 86.332 100.075 88.756 99.1634 90.844C98.2754 92.908 97.0274 94.528 95.4194 95.704C93.8114 96.856 91.9274 97.432 89.7674 97.432ZM89.8034 92.968C91.0274 92.968 92.0714 92.596 92.9354 91.852C93.7994 91.084 94.4594 90.004 94.9154 88.612C95.3954 87.196 95.6354 85.516 95.6354 83.572C95.6354 81.628 95.3954 79.96 94.9154 78.568C94.4594 77.152 93.7874 76.072 92.8994 75.328C92.0354 74.584 90.9794 74.212 89.7314 74.212C88.5314 74.212 87.4994 74.584 86.6354 75.328C85.7714 76.072 85.0994 77.152 84.6194 78.568C84.1634 79.96 83.9354 81.628 83.9354 83.572C83.9354 85.492 84.1634 87.16 84.6194 88.576C85.0994 89.968 85.7714 91.048 86.6354 91.816C87.5234 92.584 88.5794 92.968 89.8034 92.968ZM115.256 97.432C113.12 97.432 111.248 96.856 109.64 95.704C108.032 94.552 106.772 92.932 105.86 90.844C104.972 88.756 104.528 86.332 104.528 83.572C104.528 80.788 104.972 78.364 105.86 76.3C106.748 74.236 107.996 72.628 109.604 71.476C111.212 70.324 113.084 69.748 115.22 69.748C117.404 69.748 119.288 70.324 120.872 71.476C122.48 72.628 123.74 74.248 124.652 76.336C125.564 78.4 126.02 80.812 126.02 83.572C126.02 86.332 125.564 88.756 124.652 90.844C123.764 92.908 122.516 94.528 120.908 95.704C119.3 96.856 117.416 97.432 115.256 97.432ZM115.292 92.968C116.516 92.968 117.56 92.596 118.424 91.852C119.288 91.084 119.948 90.004 120.404 88.612C120.884 87.196 121.124 85.516 121.124 83.572C121.124 81.628 120.884 79.96 120.404 78.568C119.948 77.152 119.276 76.072 118.388 75.328C117.524 74.584 116.468 74.212 115.22 74.212C114.02 74.212 112.988 74.584 112.124 75.328C111.26 76.072 110.588 77.152 110.108 78.568C109.652 79.96 109.424 81.628 109.424 83.572C109.424 85.492 109.652 87.16 110.108 88.576C110.588 89.968 111.26 91.048 112.124 91.816C113.012 92.584 114.068 92.968 115.292 92.968Z" fill="#0093F7"/>
<path d="M51.4378 126.216C50.4778 126.216 49.5898 126.042 48.7738 125.694C47.9698 125.346 47.2618 124.86 46.6498 124.236C46.0498 123.612 45.5818 122.88 45.2458 122.04C44.9098 121.2 44.7418 120.282 44.7418 119.286C44.7418 118.29 44.9038 117.372 45.2278 116.532C45.5638 115.68 46.0318 114.948 46.6318 114.336C47.2438 113.712 47.9578 113.232 48.7738 112.896C49.5898 112.548 50.4778 112.374 51.4378 112.374C52.3978 112.374 53.2558 112.536 54.0118 112.86C54.7798 113.184 55.4278 113.616 55.9558 114.156C56.4838 114.684 56.8618 115.266 57.0898 115.902L54.8938 116.928C54.6418 116.256 54.2158 115.704 53.6158 115.272C53.0158 114.828 52.2898 114.606 51.4378 114.606C50.5978 114.606 49.8538 114.804 49.2058 115.2C48.5698 115.596 48.0718 116.142 47.7118 116.838C47.3638 117.534 47.1898 118.35 47.1898 119.286C47.1898 120.222 47.3638 121.044 47.7118 121.752C48.0718 122.448 48.5698 122.994 49.2058 123.39C49.8538 123.786 50.5978 123.984 51.4378 123.984C52.2898 123.984 53.0158 123.768 53.6158 123.336C54.2158 122.892 54.6418 122.334 54.8938 121.662L57.0898 122.688C56.8618 123.324 56.4838 123.912 55.9558 124.452C55.4278 124.98 54.7798 125.406 54.0118 125.73C53.2558 126.054 52.3978 126.216 51.4378 126.216ZM58.8793 126V112.374H61.2373V126H58.8793ZM63.4144 126V116.208H65.7724V126H63.4144ZM63.4144 115.11V112.59H65.7724V115.11H63.4144ZM72.5936 126.216C71.5856 126.216 70.7036 125.988 69.9476 125.532C69.1916 125.076 68.6036 124.458 68.1836 123.678C67.7636 122.898 67.5536 122.034 67.5536 121.086C67.5536 120.102 67.7636 119.232 68.1836 118.476C68.6156 117.708 69.1976 117.102 69.9296 116.658C70.6736 116.214 71.5016 115.992 72.4136 115.992C73.1816 115.992 73.8536 116.118 74.4296 116.37C75.0176 116.622 75.5156 116.97 75.9236 117.414C76.3316 117.858 76.6436 118.368 76.8596 118.944C77.0756 119.508 77.1836 120.12 77.1836 120.78C77.1836 120.948 77.1716 121.122 77.1476 121.302C77.1356 121.482 77.1056 121.638 77.0576 121.77H69.4976V119.97H75.7256L74.6096 120.816C74.7176 120.264 74.6876 119.772 74.5196 119.34C74.3636 118.908 74.0996 118.566 73.7276 118.314C73.3676 118.062 72.9296 117.936 72.4136 117.936C71.9216 117.936 71.4836 118.062 71.0996 118.314C70.7156 118.554 70.4216 118.914 70.2176 119.394C70.0256 119.862 69.9536 120.432 70.0016 121.104C69.9536 121.704 70.0316 122.238 70.2356 122.706C70.4516 123.162 70.7636 123.516 71.1716 123.768C71.5916 124.02 72.0716 124.146 72.6116 124.146C73.1516 124.146 73.6076 124.032 73.9796 123.804C74.3636 123.576 74.6636 123.27 74.8796 122.886L76.7876 123.822C76.5956 124.29 76.2956 124.704 75.8876 125.064C75.4796 125.424 74.9936 125.706 74.4296 125.91C73.8776 126.114 73.2656 126.216 72.5936 126.216ZM78.971 126V116.208H81.185V118.134L81.005 117.792C81.233 117.204 81.605 116.76 82.121 116.46C82.649 116.148 83.261 115.992 83.957 115.992C84.677 115.992 85.313 116.148 85.865 116.46C86.429 116.772 86.867 117.21 87.179 117.774C87.491 118.326 87.647 118.968 87.647 119.7V126H85.289V120.258C85.289 119.826 85.205 119.454 85.037 119.142C84.869 118.83 84.635 118.59 84.335 118.422C84.047 118.242 83.705 118.152 83.309 118.152C82.925 118.152 82.583 118.242 82.283 118.422C81.983 118.59 81.749 118.83 81.581 119.142C81.413 119.454 81.329 119.826 81.329 120.258V126H78.971ZM94.105 126.108C93.001 126.108 92.143 125.808 91.531 125.208C90.931 124.596 90.631 123.738 90.631 122.634V118.314H88.939V116.208H89.119C89.599 116.208 89.971 116.082 90.235 115.83C90.499 115.578 90.631 115.212 90.631 114.732V113.976H92.989V116.208H95.239V118.314H92.989V122.508C92.989 122.832 93.043 123.108 93.151 123.336C93.271 123.564 93.451 123.738 93.691 123.858C93.943 123.978 94.261 124.038 94.645 124.038C94.729 124.038 94.825 124.032 94.933 124.02C95.053 124.008 95.167 123.996 95.275 123.984V126C95.107 126.024 94.915 126.048 94.699 126.072C94.483 126.096 94.285 126.108 94.105 126.108ZM101.633 126.216C100.625 126.216 99.7426 125.988 98.9866 125.532C98.2306 125.076 97.6426 124.458 97.2226 123.678C96.8026 122.898 96.5926 122.034 96.5926 121.086C96.5926 120.102 96.8026 119.232 97.2226 118.476C97.6546 117.708 98.2366 117.102 98.9686 116.658C99.7126 116.214 100.541 115.992 101.453 115.992C102.221 115.992 102.893 116.118 103.469 116.37C104.057 116.622 104.555 116.97 104.963 117.414C105.371 117.858 105.683 118.368 105.899 118.944C106.115 119.508 106.223 120.12 106.223 120.78C106.223 120.948 106.211 121.122 106.187 121.302C106.175 121.482 106.145 121.638 106.097 121.77H98.5366V119.97H104.765L103.649 120.816C103.757 120.264 103.727 119.772 103.559 119.34C103.403 118.908 103.139 118.566 102.767 118.314C102.407 118.062 101.969 117.936 101.453 117.936C100.961 117.936 100.523 118.062 100.139 118.314C99.7546 118.554 99.4606 118.914 99.2566 119.394C99.0646 119.862 98.9926 120.432 99.0406 121.104C98.9926 121.704 99.0706 122.238 99.2746 122.706C99.4906 123.162 99.8026 123.516 100.211 123.768C100.631 124.02 101.111 124.146 101.651 124.146C102.191 124.146 102.647 124.032 103.019 123.804C103.403 123.576 103.703 123.27 103.919 122.886L105.827 123.822C105.635 124.29 105.335 124.704 104.927 125.064C104.519 125.424 104.033 125.706 103.469 125.91C102.917 126.114 102.305 126.216 101.633 126.216ZM111.736 126.216C110.692 126.216 109.78 125.97 109 125.478C108.232 124.974 107.704 124.296 107.416 123.444L109.18 122.598C109.432 123.15 109.78 123.582 110.224 123.894C110.68 124.206 111.184 124.362 111.736 124.362C112.168 124.362 112.51 124.266 112.762 124.074C113.014 123.882 113.14 123.63 113.14 123.318C113.14 123.126 113.086 122.97 112.978 122.85C112.882 122.718 112.744 122.61 112.564 122.526C112.396 122.43 112.21 122.352 112.006 122.292L110.404 121.842C109.576 121.602 108.946 121.236 108.514 120.744C108.094 120.252 107.884 119.67 107.884 118.998C107.884 118.398 108.034 117.876 108.334 117.432C108.646 116.976 109.072 116.622 109.612 116.37C110.164 116.118 110.794 115.992 111.502 115.992C112.426 115.992 113.242 116.214 113.95 116.658C114.658 117.102 115.162 117.726 115.462 118.53L113.662 119.376C113.494 118.932 113.212 118.578 112.816 118.314C112.42 118.05 111.976 117.918 111.484 117.918C111.088 117.918 110.776 118.008 110.548 118.188C110.32 118.368 110.206 118.602 110.206 118.89C110.206 119.07 110.254 119.226 110.35 119.358C110.446 119.49 110.578 119.598 110.746 119.682C110.926 119.766 111.13 119.844 111.358 119.916L112.924 120.384C113.728 120.624 114.346 120.984 114.778 121.464C115.222 121.944 115.444 122.532 115.444 123.228C115.444 123.816 115.288 124.338 114.976 124.794C114.664 125.238 114.232 125.586 113.68 125.838C113.128 126.09 112.48 126.216 111.736 126.216ZM34.1287 150.216C33.0847 150.216 32.1727 149.97 31.3927 149.478C30.6247 148.974 30.0967 148.296 29.8087 147.444L31.5727 146.598C31.8247 147.15 32.1727 147.582 32.6167 147.894C33.0727 148.206 33.5767 148.362 34.1287 148.362C34.5607 148.362 34.9027 148.266 35.1547 148.074C35.4067 147.882 35.5327 147.63 35.5327 147.318C35.5327 147.126 35.4787 146.97 35.3707 146.85C35.2747 146.718 35.1367 146.61 34.9567 146.526C34.7887 146.43 34.6027 146.352 34.3987 146.292L32.7967 145.842C31.9687 145.602 31.3387 145.236 30.9067 144.744C30.4867 144.252 30.2767 143.67 30.2767 142.998C30.2767 142.398 30.4267 141.876 30.7267 141.432C31.0387 140.976 31.4647 140.622 32.0047 140.37C32.5567 140.118 33.1867 139.992 33.8947 139.992C34.8187 139.992 35.6347 140.214 36.3427 140.658C37.0507 141.102 37.5547 141.726 37.8547 142.53L36.0547 143.376C35.8867 142.932 35.6047 142.578 35.2087 142.314C34.8127 142.05 34.3687 141.918 33.8767 141.918C33.4807 141.918 33.1687 142.008 32.9407 142.188C32.7127 142.368 32.5987 142.602 32.5987 142.89C32.5987 143.07 32.6467 143.226 32.7427 143.358C32.8387 143.49 32.9707 143.598 33.1387 143.682C33.3187 143.766 33.5227 143.844 33.7507 143.916L35.3167 144.384C36.1207 144.624 36.7387 144.984 37.1707 145.464C37.6147 145.944 37.8367 146.532 37.8367 147.228C37.8367 147.816 37.6807 148.338 37.3687 148.794C37.0567 149.238 36.6247 149.586 36.0727 149.838C35.5207 150.09 34.8727 150.216 34.1287 150.216ZM42.6188 150.216C41.9348 150.216 41.3408 150.102 40.8368 149.874C40.3328 149.646 39.9428 149.322 39.6668 148.902C39.3908 148.47 39.2528 147.972 39.2528 147.408C39.2528 146.868 39.3728 146.388 39.6128 145.968C39.8528 145.536 40.2248 145.176 40.7288 144.888C41.2328 144.6 41.8688 144.396 42.6368 144.276L45.8408 143.754V145.554L43.0868 146.022C42.6188 146.106 42.2708 146.256 42.0428 146.472C41.8148 146.688 41.7008 146.97 41.7008 147.318C41.7008 147.654 41.8268 147.924 42.0788 148.128C42.3428 148.32 42.6668 148.416 43.0508 148.416C43.5428 148.416 43.9748 148.314 44.3468 148.11C44.7308 147.894 45.0248 147.6 45.2288 147.228C45.4448 146.856 45.5528 146.448 45.5528 146.004V143.484C45.5528 143.064 45.3848 142.716 45.0488 142.44C44.7248 142.152 44.2928 142.008 43.7528 142.008C43.2488 142.008 42.7988 142.146 42.4028 142.422C42.0188 142.686 41.7368 143.04 41.5568 143.484L39.6308 142.548C39.8228 142.032 40.1228 141.588 40.5308 141.216C40.9508 140.832 41.4428 140.532 42.0068 140.316C42.5708 140.1 43.1828 139.992 43.8428 139.992C44.6468 139.992 45.3548 140.142 45.9668 140.442C46.5788 140.73 47.0528 141.138 47.3888 141.666C47.7368 142.182 47.9108 142.788 47.9108 143.484V150H45.6788V148.326L46.1828 148.29C45.9308 148.71 45.6308 149.064 45.2828 149.352C44.9348 149.628 44.5388 149.844 44.0948 150C43.6508 150.144 43.1588 150.216 42.6188 150.216ZM54.3784 150.108C53.2744 150.108 52.4164 149.808 51.8044 149.208C51.2044 148.596 50.9044 147.738 50.9044 146.634V142.314H49.2124V140.208H49.3924C49.8724 140.208 50.2444 140.082 50.5084 139.83C50.7724 139.578 50.9044 139.212 50.9044 138.732V137.976H53.2624V140.208H55.5124V142.314H53.2624V146.508C53.2624 146.832 53.3164 147.108 53.4244 147.336C53.5444 147.564 53.7244 147.738 53.9644 147.858C54.2164 147.978 54.5344 148.038 54.9184 148.038C55.0024 148.038 55.0984 148.032 55.2064 148.02C55.3264 148.008 55.4404 147.996 55.5484 147.984V150C55.3804 150.024 55.1884 150.048 54.9724 150.072C54.7564 150.096 54.5584 150.108 54.3784 150.108ZM57.35 150V140.208H59.708V150H57.35ZM57.35 139.11V136.59H59.708V139.11H57.35ZM65.6111 150.216C64.5671 150.216 63.6551 149.97 62.8751 149.478C62.1071 148.974 61.5791 148.296 61.2911 147.444L63.0551 146.598C63.3071 147.15 63.6551 147.582 64.0991 147.894C64.5551 148.206 65.0591 148.362 65.6111 148.362C66.0431 148.362 66.3851 148.266 66.6371 148.074C66.8891 147.882 67.0151 147.63 67.0151 147.318C67.0151 147.126 66.9611 146.97 66.8531 146.85C66.7571 146.718 66.6191 146.61 66.4391 146.526C66.2711 146.43 66.0851 146.352 65.8811 146.292L64.2791 145.842C63.4511 145.602 62.8211 145.236 62.3891 144.744C61.9691 144.252 61.7591 143.67 61.7591 142.998C61.7591 142.398 61.9091 141.876 62.2091 141.432C62.5211 140.976 62.9471 140.622 63.4871 140.37C64.0391 140.118 64.6691 139.992 65.3771 139.992C66.3011 139.992 67.1171 140.214 67.8251 140.658C68.5331 141.102 69.0371 141.726 69.3371 142.53L67.5371 143.376C67.3691 142.932 67.0871 142.578 66.6911 142.314C66.2951 142.05 65.8511 141.918 65.3591 141.918C64.9631 141.918 64.6511 142.008 64.4231 142.188C64.1951 142.368 64.0811 142.602 64.0811 142.89C64.0811 143.07 64.1291 143.226 64.2251 143.358C64.3211 143.49 64.4531 143.598 64.6211 143.682C64.8011 143.766 65.0051 143.844 65.2331 143.916L66.7991 144.384C67.6031 144.624 68.2211 144.984 68.6531 145.464C69.0971 145.944 69.3191 146.532 69.3191 147.228C69.3191 147.816 69.1631 148.338 68.8511 148.794C68.5391 149.238 68.1071 149.586 67.5551 149.838C67.0031 150.09 66.3551 150.216 65.6111 150.216ZM72.2652 150V142.314H70.5372V140.208H72.2652V139.884C72.2652 139.14 72.4152 138.51 72.7152 137.994C73.0272 137.466 73.4592 137.064 74.0112 136.788C74.5632 136.512 75.2172 136.374 75.9732 136.374C76.1172 136.374 76.2732 136.386 76.4412 136.41C76.6212 136.422 76.7712 136.44 76.8912 136.464V138.498C76.7712 138.474 76.6572 138.462 76.5492 138.462C76.4532 138.45 76.3632 138.444 76.2792 138.444C75.7512 138.444 75.3432 138.564 75.0552 138.804C74.7672 139.032 74.6232 139.392 74.6232 139.884V140.208H76.8012V142.314H74.6232V150H72.2652ZM82.8065 150.216C81.7985 150.216 80.9165 149.988 80.1605 149.532C79.4045 149.076 78.8165 148.458 78.3965 147.678C77.9765 146.898 77.7665 146.034 77.7665 145.086C77.7665 144.102 77.9765 143.232 78.3965 142.476C78.8285 141.708 79.4105 141.102 80.1425 140.658C80.8865 140.214 81.7145 139.992 82.6265 139.992C83.3945 139.992 84.0665 140.118 84.6425 140.37C85.2305 140.622 85.7285 140.97 86.1365 141.414C86.5445 141.858 86.8565 142.368 87.0725 142.944C87.2885 143.508 87.3965 144.12 87.3965 144.78C87.3965 144.948 87.3845 145.122 87.3605 145.302C87.3485 145.482 87.3185 145.638 87.2705 145.77H79.7105V143.97H85.9385L84.8225 144.816C84.9305 144.264 84.9005 143.772 84.7325 143.34C84.5765 142.908 84.3125 142.566 83.9405 142.314C83.5805 142.062 83.1425 141.936 82.6265 141.936C82.1345 141.936 81.6965 142.062 81.3125 142.314C80.9285 142.554 80.6345 142.914 80.4305 143.394C80.2385 143.862 80.1665 144.432 80.2145 145.104C80.1665 145.704 80.2445 146.238 80.4485 146.706C80.6645 147.162 80.9765 147.516 81.3845 147.768C81.8045 148.02 82.2845 148.146 82.8245 148.146C83.3645 148.146 83.8205 148.032 84.1925 147.804C84.5765 147.576 84.8765 147.27 85.0925 146.886L87.0005 147.822C86.8085 148.29 86.5085 148.704 86.1005 149.064C85.6925 149.424 85.2065 149.706 84.6425 149.91C84.0905 150.114 83.4785 150.216 82.8065 150.216ZM93.8999 150.216C92.9279 150.216 92.0519 149.994 91.2719 149.55C90.5039 149.094 89.8979 148.482 89.4539 147.714C89.0099 146.934 88.7879 146.058 88.7879 145.086C88.7879 144.114 89.0099 143.244 89.4539 142.476C89.8979 141.708 90.5039 141.102 91.2719 140.658C92.0519 140.214 92.9279 139.992 93.8999 139.992C94.5959 139.992 95.2439 140.118 95.8439 140.37C96.4439 140.61 96.9599 140.946 97.3919 141.378C97.8359 141.798 98.1539 142.302 98.3459 142.89L96.2759 143.79C96.0959 143.298 95.7899 142.902 95.3579 142.602C94.9379 142.302 94.4519 142.152 93.8999 142.152C93.3839 142.152 92.9219 142.278 92.5139 142.53C92.1179 142.782 91.8059 143.13 91.5779 143.574C91.3499 144.018 91.2359 144.528 91.2359 145.104C91.2359 145.68 91.3499 146.19 91.5779 146.634C91.8059 147.078 92.1179 147.426 92.5139 147.678C92.9219 147.93 93.3839 148.056 93.8999 148.056C94.4639 148.056 94.9559 147.906 95.3759 147.606C95.7959 147.306 96.0959 146.904 96.2759 146.4L98.3459 147.336C98.1539 147.888 97.8419 148.386 97.4099 148.83C96.9779 149.262 96.4619 149.604 95.8619 149.856C95.2619 150.096 94.6079 150.216 93.8999 150.216ZM100.135 150V136.374H102.493V142.134L102.169 141.792C102.397 141.204 102.769 140.76 103.285 140.46C103.813 140.148 104.425 139.992 105.121 139.992C105.841 139.992 106.477 140.148 107.029 140.46C107.593 140.772 108.031 141.21 108.343 141.774C108.655 142.326 108.811 142.968 108.811 143.7V150H106.453V144.258C106.453 143.826 106.369 143.454 106.201 143.142C106.033 142.83 105.799 142.59 105.499 142.422C105.211 142.242 104.869 142.152 104.473 142.152C104.089 142.152 103.747 142.242 103.447 142.422C103.147 142.59 102.913 142.83 102.745 143.142C102.577 143.454 102.493 143.826 102.493 144.258V150H100.135ZM115.593 150.216C114.633 150.216 113.757 149.994 112.965 149.55C112.185 149.106 111.561 148.5 111.093 147.732C110.637 146.964 110.409 146.088 110.409 145.104C110.409 144.12 110.637 143.244 111.093 142.476C111.561 141.708 112.185 141.102 112.965 140.658C113.745 140.214 114.621 139.992 115.593 139.992C116.553 139.992 117.423 140.214 118.203 140.658C118.983 141.102 119.601 141.708 120.057 142.476C120.525 143.232 120.759 144.108 120.759 145.104C120.759 146.088 120.525 146.964 120.057 147.732C119.589 148.5 118.965 149.106 118.185 149.55C117.405 149.994 116.541 150.216 115.593 150.216ZM115.593 148.056C116.121 148.056 116.583 147.93 116.979 147.678C117.387 147.426 117.705 147.078 117.933 146.634C118.173 146.178 118.293 145.668 118.293 145.104C118.293 144.528 118.173 144.024 117.933 143.592C117.705 143.148 117.387 142.8 116.979 142.548C116.583 142.284 116.121 142.152 115.593 142.152C115.053 142.152 114.579 142.284 114.171 142.548C113.763 142.8 113.439 143.148 113.199 143.592C112.971 144.024 112.857 144.528 112.857 145.104C112.857 145.668 112.971 146.178 113.199 146.634C113.439 147.078 113.763 147.426 114.171 147.678C114.579 147.93 115.053 148.056 115.593 148.056ZM126.273 150.216C125.229 150.216 124.317 149.97 123.537 149.478C122.769 148.974 122.241 148.296 121.953 147.444L123.717 146.598C123.969 147.15 124.317 147.582 124.761 147.894C125.217 148.206 125.721 148.362 126.273 148.362C126.705 148.362 127.047 148.266 127.299 148.074C127.551 147.882 127.677 147.63 127.677 147.318C127.677 147.126 127.623 146.97 127.515 146.85C127.419 146.718 127.281 146.61 127.101 146.526C126.933 146.43 126.747 146.352 126.543 146.292L124.941 145.842C124.113 145.602 123.483 145.236 123.051 144.744C122.631 144.252 122.421 143.67 122.421 142.998C122.421 142.398 122.571 141.876 122.871 141.432C123.183 140.976 123.609 140.622 124.149 140.37C124.701 140.118 125.331 139.992 126.039 139.992C126.963 139.992 127.779 140.214 128.487 140.658C129.195 141.102 129.699 141.726 129.999 142.53L128.199 143.376C128.031 142.932 127.749 142.578 127.353 142.314C126.957 142.05 126.513 141.918 126.021 141.918C125.625 141.918 125.313 142.008 125.085 142.188C124.857 142.368 124.743 142.602 124.743 142.89C124.743 143.07 124.791 143.226 124.887 143.358C124.983 143.49 125.115 143.598 125.283 143.682C125.463 143.766 125.667 143.844 125.895 143.916L127.461 144.384C128.265 144.624 128.883 144.984 129.315 145.464C129.759 145.944 129.981 146.532 129.981 147.228C129.981 147.816 129.825 148.338 129.513 148.794C129.201 149.238 128.769 149.586 128.217 149.838C127.665 150.09 127.017 150.216 126.273 150.216Z" fill="white"/>
<rect x="55" width="49" height="49" rx="10" fill="#0093F7"/>
<path d="M80 16.0799C80.8551 15.111 82.1062 14.5 83.5 14.5C86.0773 14.5 88.1667 16.5893 88.1667 19.1667C88.1667 21.744 86.0773 23.8333 83.5 23.8333C82.1062 23.8333 80.8551 23.2223 80 22.2535M83.5 35.5H69.5V34.3333C69.5 30.4673 72.634 27.3333 76.5 27.3333C80.366 27.3333 83.5 30.4673 83.5 34.3333V35.5ZM83.5 35.5H90.5V34.3333C90.5 30.4673 87.366 27.3333 83.5 27.3333C82.225 27.3333 81.0296 27.6742 80 28.2698M81.1667 19.1667C81.1667 21.744 79.0773 23.8333 76.5 23.8333C73.9227 23.8333 71.8333 21.744 71.8333 19.1667C71.8333 16.5893 73.9227 14.5 76.5 14.5C79.0773 14.5 81.1667 16.5893 81.1667 19.1667Z" stroke="#0A0223" stroke-width="2" stroke-linecap="round" stroke-linejoin="round"/>
</svg>
