<svg width="170" height="187" viewBox="0 0 170 187" fill="none" xmlns="http://www.w3.org/2000/svg">
<g filter="url(#filter0_d_199_2250)">
<rect x="5" y="24" width="160" height="153" rx="10" fill="white"/>
<path d="M45.9187 97V90.016H38.9347V85.948H45.9187V79H49.9867V85.948H56.9347V90.016H49.9867V97H45.9187ZM70.5123 97.432C69.0963 97.432 67.7403 97.168 66.4443 96.64C65.1723 96.112 64.0683 95.368 63.1323 94.408C62.2203 93.424 61.5963 92.26 61.2603 90.916L65.5083 89.404C65.9163 90.628 66.5763 91.54 67.4883 92.14C68.4003 92.716 69.4083 93.004 70.5123 93.004C71.4243 93.004 72.2283 92.812 72.9243 92.428C73.6443 92.02 74.1963 91.468 74.5803 90.772C74.9643 90.052 75.1563 89.224 75.1563 88.288C75.1563 87.352 74.9523 86.536 74.5443 85.84C74.1603 85.144 73.6203 84.604 72.9243 84.22C72.2283 83.812 71.4243 83.608 70.5123 83.608C69.5763 83.608 68.7243 83.812 67.9563 84.22C67.2123 84.628 66.6723 85.216 66.3363 85.984L62.3403 85.084L64.4643 70.18H79.0803V74.32H66.4083L68.2443 72.196L66.7323 83.428L65.3283 82.276C66.0003 81.292 66.8163 80.572 67.7763 80.116C68.7603 79.66 69.9483 79.432 71.3403 79.432C73.1163 79.432 74.6523 79.816 75.9483 80.584C77.2683 81.352 78.2883 82.396 79.0083 83.716C79.7283 85.036 80.0883 86.56 80.0883 88.288C80.0883 90.016 79.6683 91.576 78.8283 92.968C77.9883 94.36 76.8483 95.452 75.4083 96.244C73.9683 97.036 72.3363 97.432 70.5123 97.432ZM94.7128 97.432C92.5768 97.432 90.7048 96.856 89.0968 95.704C87.4888 94.552 86.2288 92.932 85.3168 90.844C84.4288 88.756 83.9848 86.332 83.9848 83.572C83.9848 80.788 84.4288 78.364 85.3168 76.3C86.2048 74.236 87.4528 72.628 89.0608 71.476C90.6688 70.324 92.5408 69.748 94.6768 69.748C96.8608 69.748 98.7448 70.324 100.329 71.476C101.937 72.628 103.197 74.248 104.109 76.336C105.021 78.4 105.477 80.812 105.477 83.572C105.477 86.332 105.021 88.756 104.109 90.844C103.221 92.908 101.973 94.528 100.365 95.704C98.7568 96.856 96.8728 97.432 94.7128 97.432ZM94.7488 92.968C95.9728 92.968 97.0168 92.596 97.8808 91.852C98.7448 91.084 99.4048 90.004 99.8608 88.612C100.341 87.196 100.581 85.516 100.581 83.572C100.581 81.628 100.341 79.96 99.8608 78.568C99.4048 77.152 98.7328 76.072 97.8448 75.328C96.9808 74.584 95.9248 74.212 94.6768 74.212C93.4768 74.212 92.4448 74.584 91.5808 75.328C90.7168 76.072 90.0448 77.152 89.5648 78.568C89.1088 79.96 88.8808 81.628 88.8808 83.572C88.8808 85.492 89.1088 87.16 89.5648 88.576C90.0448 89.968 90.7168 91.048 91.5808 91.816C92.4688 92.584 93.5248 92.968 94.7488 92.968ZM120.201 97.432C118.065 97.432 116.193 96.856 114.585 95.704C112.977 94.552 111.717 92.932 110.805 90.844C109.917 88.756 109.473 86.332 109.473 83.572C109.473 80.788 109.917 78.364 110.805 76.3C111.693 74.236 112.941 72.628 114.549 71.476C116.157 70.324 118.029 69.748 120.165 69.748C122.349 69.748 124.233 70.324 125.817 71.476C127.425 72.628 128.685 74.248 129.597 76.336C130.509 78.4 130.965 80.812 130.965 83.572C130.965 86.332 130.509 88.756 129.597 90.844C128.709 92.908 127.461 94.528 125.853 95.704C124.245 96.856 122.361 97.432 120.201 97.432ZM120.237 92.968C121.461 92.968 122.505 92.596 123.369 91.852C124.233 91.084 124.893 90.004 125.349 88.612C125.829 87.196 126.069 85.516 126.069 83.572C126.069 81.628 125.829 79.96 125.349 78.568C124.893 77.152 124.221 76.072 123.333 75.328C122.469 74.584 121.413 74.212 120.165 74.212C118.965 74.212 117.933 74.584 117.069 75.328C116.205 76.072 115.533 77.152 115.053 78.568C114.597 79.96 114.369 81.628 114.369 83.572C114.369 85.492 114.597 87.16 115.053 88.576C115.533 89.968 116.205 91.048 117.069 91.816C117.957 92.584 119.013 92.968 120.237 92.968Z" fill="#0093F7"/>
<path d="M40.9708 126V112.59H45.9748C46.8868 112.59 47.6908 112.758 48.3868 113.094C49.0948 113.418 49.6468 113.898 50.0428 114.534C50.4388 115.158 50.6368 115.92 50.6368 116.82C50.6368 117.708 50.4328 118.47 50.0248 119.106C49.6288 119.73 49.0828 120.21 48.3868 120.546C47.6908 120.882 46.8868 121.05 45.9748 121.05H43.4188V126H40.9708ZM43.4188 118.89H46.0108C46.4548 118.89 46.8388 118.806 47.1628 118.638C47.4868 118.458 47.7388 118.212 47.9188 117.9C48.0988 117.588 48.1888 117.228 48.1888 116.82C48.1888 116.4 48.0988 116.04 47.9188 115.74C47.7388 115.428 47.4868 115.188 47.1628 115.02C46.8388 114.84 46.4548 114.75 46.0108 114.75H43.4188V118.89ZM52.4447 126V116.208H54.6587V118.386L54.4787 118.062C54.7067 117.33 55.0607 116.82 55.5407 116.532C56.0327 116.244 56.6207 116.1 57.3047 116.1H57.8807V118.188H57.0347C56.3627 118.188 55.8227 118.398 55.4147 118.818C55.0067 119.226 54.8027 119.802 54.8027 120.546V126H52.4447ZM63.9651 126.216C63.0051 126.216 62.1291 125.994 61.3371 125.55C60.5571 125.106 59.9331 124.5 59.4651 123.732C59.0091 122.964 58.7811 122.088 58.7811 121.104C58.7811 120.12 59.0091 119.244 59.4651 118.476C59.9331 117.708 60.5571 117.102 61.3371 116.658C62.1171 116.214 62.9931 115.992 63.9651 115.992C64.9251 115.992 65.7951 116.214 66.5751 116.658C67.3551 117.102 67.9731 117.708 68.4291 118.476C68.8971 119.232 69.1311 120.108 69.1311 121.104C69.1311 122.088 68.8971 122.964 68.4291 123.732C67.9611 124.5 67.3371 125.106 66.5571 125.55C65.7771 125.994 64.9131 126.216 63.9651 126.216ZM63.9651 124.056C64.4931 124.056 64.9551 123.93 65.3511 123.678C65.7591 123.426 66.0771 123.078 66.3051 122.634C66.5451 122.178 66.6651 121.668 66.6651 121.104C66.6651 120.528 66.5451 120.024 66.3051 119.592C66.0771 119.148 65.7591 118.8 65.3511 118.548C64.9551 118.284 64.4931 118.152 63.9651 118.152C63.4251 118.152 62.9511 118.284 62.5431 118.548C62.1351 118.8 61.8111 119.148 61.5711 119.592C61.3431 120.024 61.2291 120.528 61.2291 121.104C61.2291 121.668 61.3431 122.178 61.5711 122.634C61.8111 123.078 62.1351 123.426 62.5431 123.678C62.9511 123.93 63.4251 124.056 63.9651 124.056ZM71.9315 129.978C71.6675 129.978 71.4095 129.954 71.1575 129.906C70.9055 129.87 70.6775 129.804 70.4735 129.708V127.728C70.6295 127.764 70.8155 127.8 71.0315 127.836C71.2595 127.872 71.4695 127.89 71.6615 127.89C72.2015 127.89 72.5915 127.764 72.8315 127.512C73.0835 127.26 73.3055 126.93 73.4975 126.522L74.1455 125.01L74.1095 126.99L69.8435 116.208H72.3815L75.3695 124.164H74.4695L77.4395 116.208H79.9955L75.7295 126.99C75.4775 127.626 75.1715 128.166 74.8115 128.61C74.4515 129.054 74.0315 129.39 73.5515 129.618C73.0835 129.858 72.5435 129.978 71.9315 129.978ZM85.7586 126.216C84.7506 126.216 83.8686 125.988 83.1126 125.532C82.3566 125.076 81.7686 124.458 81.3486 123.678C80.9286 122.898 80.7186 122.034 80.7186 121.086C80.7186 120.102 80.9286 119.232 81.3486 118.476C81.7806 117.708 82.3626 117.102 83.0946 116.658C83.8386 116.214 84.6666 115.992 85.5786 115.992C86.3466 115.992 87.0186 116.118 87.5946 116.37C88.1826 116.622 88.6806 116.97 89.0886 117.414C89.4966 117.858 89.8086 118.368 90.0246 118.944C90.2406 119.508 90.3486 120.12 90.3486 120.78C90.3486 120.948 90.3366 121.122 90.3126 121.302C90.3006 121.482 90.2706 121.638 90.2226 121.77H82.6626V119.97H88.8906L87.7746 120.816C87.8826 120.264 87.8526 119.772 87.6846 119.34C87.5286 118.908 87.2646 118.566 86.8926 118.314C86.5326 118.062 86.0946 117.936 85.5786 117.936C85.0866 117.936 84.6486 118.062 84.2646 118.314C83.8806 118.554 83.5866 118.914 83.3826 119.394C83.1906 119.862 83.1186 120.432 83.1666 121.104C83.1186 121.704 83.1966 122.238 83.4006 122.706C83.6166 123.162 83.9286 123.516 84.3366 123.768C84.7566 124.02 85.2366 124.146 85.7766 124.146C86.3166 124.146 86.7726 124.032 87.1446 123.804C87.5286 123.576 87.8286 123.27 88.0446 122.886L89.9526 123.822C89.7606 124.29 89.4606 124.704 89.0526 125.064C88.6446 125.424 88.1586 125.706 87.5946 125.91C87.0426 126.114 86.4306 126.216 85.7586 126.216ZM96.8521 126.216C95.8801 126.216 95.0041 125.994 94.2241 125.55C93.4561 125.094 92.8501 124.482 92.4061 123.714C91.9621 122.934 91.7401 122.058 91.7401 121.086C91.7401 120.114 91.9621 119.244 92.4061 118.476C92.8501 117.708 93.4561 117.102 94.2241 116.658C95.0041 116.214 95.8801 115.992 96.8521 115.992C97.5481 115.992 98.1961 116.118 98.7961 116.37C99.3961 116.61 99.9121 116.946 100.344 117.378C100.788 117.798 101.106 118.302 101.298 118.89L99.2281 119.79C99.0481 119.298 98.7421 118.902 98.3101 118.602C97.8901 118.302 97.4041 118.152 96.8521 118.152C96.3361 118.152 95.8741 118.278 95.4661 118.53C95.0701 118.782 94.7581 119.13 94.5301 119.574C94.3021 120.018 94.1881 120.528 94.1881 121.104C94.1881 121.68 94.3021 122.19 94.5301 122.634C94.7581 123.078 95.0701 123.426 95.4661 123.678C95.8741 123.93 96.3361 124.056 96.8521 124.056C97.4161 124.056 97.9081 123.906 98.3281 123.606C98.7481 123.306 99.0481 122.904 99.2281 122.4L101.298 123.336C101.106 123.888 100.794 124.386 100.362 124.83C99.9301 125.262 99.4141 125.604 98.8141 125.856C98.2141 126.096 97.5601 126.216 96.8521 126.216ZM107.551 126.108C106.447 126.108 105.589 125.808 104.977 125.208C104.377 124.596 104.077 123.738 104.077 122.634V118.314H102.385V116.208H102.565C103.045 116.208 103.417 116.082 103.681 115.83C103.945 115.578 104.077 115.212 104.077 114.732V113.976H106.435V116.208H108.685V118.314H106.435V122.508C106.435 122.832 106.489 123.108 106.597 123.336C106.717 123.564 106.897 123.738 107.137 123.858C107.389 123.978 107.707 124.038 108.091 124.038C108.175 124.038 108.271 124.032 108.379 124.02C108.499 124.008 108.613 123.996 108.721 123.984V126C108.553 126.024 108.361 126.048 108.145 126.072C107.929 126.096 107.731 126.108 107.551 126.108ZM115.223 126.216C114.263 126.216 113.387 125.994 112.595 125.55C111.815 125.106 111.191 124.5 110.723 123.732C110.267 122.964 110.039 122.088 110.039 121.104C110.039 120.12 110.267 119.244 110.723 118.476C111.191 117.708 111.815 117.102 112.595 116.658C113.375 116.214 114.251 115.992 115.223 115.992C116.183 115.992 117.053 116.214 117.833 116.658C118.613 117.102 119.231 117.708 119.687 118.476C120.155 119.232 120.389 120.108 120.389 121.104C120.389 122.088 120.155 122.964 119.687 123.732C119.219 124.5 118.595 125.106 117.815 125.55C117.035 125.994 116.171 126.216 115.223 126.216ZM115.223 124.056C115.751 124.056 116.213 123.93 116.609 123.678C117.017 123.426 117.335 123.078 117.563 122.634C117.803 122.178 117.923 121.668 117.923 121.104C117.923 120.528 117.803 120.024 117.563 119.592C117.335 119.148 117.017 118.8 116.609 118.548C116.213 118.284 115.751 118.152 115.223 118.152C114.683 118.152 114.209 118.284 113.801 118.548C113.393 118.8 113.069 119.148 112.829 119.592C112.601 120.024 112.487 120.528 112.487 121.104C112.487 121.668 112.601 122.178 112.829 122.634C113.069 123.078 113.393 123.426 113.801 123.678C114.209 123.93 114.683 124.056 115.223 124.056ZM125.903 126.216C124.859 126.216 123.947 125.97 123.167 125.478C122.399 124.974 121.871 124.296 121.583 123.444L123.347 122.598C123.599 123.15 123.947 123.582 124.391 123.894C124.847 124.206 125.351 124.362 125.903 124.362C126.335 124.362 126.677 124.266 126.929 124.074C127.181 123.882 127.307 123.63 127.307 123.318C127.307 123.126 127.253 122.97 127.145 122.85C127.049 122.718 126.911 122.61 126.731 122.526C126.563 122.43 126.377 122.352 126.173 122.292L124.571 121.842C123.743 121.602 123.113 121.236 122.681 120.744C122.261 120.252 122.051 119.67 122.051 118.998C122.051 118.398 122.201 117.876 122.501 117.432C122.813 116.976 123.239 116.622 123.779 116.37C124.331 116.118 124.961 115.992 125.669 115.992C126.593 115.992 127.409 116.214 128.117 116.658C128.825 117.102 129.329 117.726 129.629 118.53L127.829 119.376C127.661 118.932 127.379 118.578 126.983 118.314C126.587 118.05 126.143 117.918 125.651 117.918C125.255 117.918 124.943 118.008 124.715 118.188C124.487 118.368 124.373 118.602 124.373 118.89C124.373 119.07 124.421 119.226 124.517 119.358C124.613 119.49 124.745 119.598 124.913 119.682C125.093 119.766 125.297 119.844 125.525 119.916L127.091 120.384C127.895 120.624 128.513 120.984 128.945 121.464C129.389 121.944 129.611 122.532 129.611 123.228C129.611 123.816 129.455 124.338 129.143 124.794C128.831 125.238 128.399 125.586 127.847 125.838C127.295 126.09 126.647 126.216 125.903 126.216ZM40.4302 150V142.314H38.7022V140.208H40.4302V139.884C40.4302 139.14 40.5802 138.51 40.8802 137.994C41.1922 137.466 41.6242 137.064 42.1762 136.788C42.7282 136.512 43.3822 136.374 44.1382 136.374C44.2822 136.374 44.4382 136.386 44.6062 136.41C44.7862 136.422 44.9362 136.44 45.0562 136.464V138.498C44.9362 138.474 44.8222 138.462 44.7142 138.462C44.6182 138.45 44.5282 138.444 44.4442 138.444C43.9162 138.444 43.5082 138.564 43.2202 138.804C42.9322 139.032 42.7882 139.392 42.7882 139.884V140.208H47.0722V142.314H42.7882V150H40.4302ZM46.1902 150V140.208H48.5662V150H46.1902ZM50.5287 150V140.208H52.7427V142.134L52.5627 141.792C52.7907 141.204 53.1627 140.76 53.6787 140.46C54.2067 140.148 54.8187 139.992 55.5147 139.992C56.2347 139.992 56.8707 140.148 57.4227 140.46C57.9867 140.772 58.4247 141.21 58.7367 141.774C59.0487 142.326 59.2047 142.968 59.2047 143.7V150H56.8467V144.258C56.8467 143.826 56.7627 143.454 56.5947 143.142C56.4267 142.83 56.1927 142.59 55.8927 142.422C55.6047 142.242 55.2627 142.152 54.8667 142.152C54.4827 142.152 54.1407 142.242 53.8407 142.422C53.5407 142.59 53.3067 142.83 53.1387 143.142C52.9707 143.454 52.8867 143.826 52.8867 144.258V150H50.5287ZM64.1686 150.216C63.4846 150.216 62.8906 150.102 62.3866 149.874C61.8826 149.646 61.4926 149.322 61.2166 148.902C60.9406 148.47 60.8026 147.972 60.8026 147.408C60.8026 146.868 60.9226 146.388 61.1626 145.968C61.4026 145.536 61.7746 145.176 62.2786 144.888C62.7826 144.6 63.4186 144.396 64.1866 144.276L67.3906 143.754V145.554L64.6366 146.022C64.1686 146.106 63.8206 146.256 63.5926 146.472C63.3646 146.688 63.2506 146.97 63.2506 147.318C63.2506 147.654 63.3766 147.924 63.6286 148.128C63.8926 148.32 64.2166 148.416 64.6006 148.416C65.0926 148.416 65.5246 148.314 65.8966 148.11C66.2806 147.894 66.5746 147.6 66.7786 147.228C66.9946 146.856 67.1026 146.448 67.1026 146.004V143.484C67.1026 143.064 66.9346 142.716 66.5986 142.44C66.2746 142.152 65.8426 142.008 65.3026 142.008C64.7986 142.008 64.3486 142.146 63.9526 142.422C63.5686 142.686 63.2866 143.04 63.1066 143.484L61.1806 142.548C61.3726 142.032 61.6726 141.588 62.0806 141.216C62.5006 140.832 62.9926 140.532 63.5566 140.316C64.1206 140.1 64.7326 139.992 65.3926 139.992C66.1966 139.992 66.9046 140.142 67.5166 140.442C68.1286 140.73 68.6026 141.138 68.9386 141.666C69.2866 142.182 69.4606 142.788 69.4606 143.484V150H67.2286V148.326L67.7326 148.29C67.4806 148.71 67.1806 149.064 66.8326 149.352C66.4846 149.628 66.0886 149.844 65.6446 150C65.2006 150.144 64.7086 150.216 64.1686 150.216ZM71.64 150V136.374H73.998V150H71.64ZM76.1751 150V140.208H78.5331V150H76.1751ZM76.1751 139.11V136.59H78.5331V139.11H76.1751ZM79.8643 150V148.092L85.5523 141.504L85.9123 142.314H80.1163V140.208H88.0003V142.134L82.4203 148.722L82.0603 147.912H88.0363V150H79.8643ZM92.3463 150.216C91.6623 150.216 91.0683 150.102 90.5643 149.874C90.0603 149.646 89.6703 149.322 89.3943 148.902C89.1183 148.47 88.9803 147.972 88.9803 147.408C88.9803 146.868 89.1003 146.388 89.3403 145.968C89.5803 145.536 89.9523 145.176 90.4563 144.888C90.9603 144.6 91.5963 144.396 92.3643 144.276L95.5683 143.754V145.554L92.8143 146.022C92.3463 146.106 91.9983 146.256 91.7703 146.472C91.5423 146.688 91.4283 146.97 91.4283 147.318C91.4283 147.654 91.5543 147.924 91.8063 148.128C92.0703 148.32 92.3943 148.416 92.7783 148.416C93.2703 148.416 93.7023 148.314 94.0743 148.11C94.4583 147.894 94.7523 147.6 94.9563 147.228C95.1723 146.856 95.2803 146.448 95.2803 146.004V143.484C95.2803 143.064 95.1123 142.716 94.7763 142.44C94.4523 142.152 94.0203 142.008 93.4803 142.008C92.9763 142.008 92.5263 142.146 92.1303 142.422C91.7463 142.686 91.4643 143.04 91.2843 143.484L89.3583 142.548C89.5503 142.032 89.8503 141.588 90.2583 141.216C90.6783 140.832 91.1703 140.532 91.7343 140.316C92.2983 140.1 92.9103 139.992 93.5703 139.992C94.3743 139.992 95.0823 140.142 95.6943 140.442C96.3063 140.73 96.7803 141.138 97.1163 141.666C97.4643 142.182 97.6383 142.788 97.6383 143.484V150H95.4063V148.326L95.9103 148.29C95.6583 148.71 95.3583 149.064 95.0103 149.352C94.6623 149.628 94.2663 149.844 93.8223 150C93.3783 150.144 92.8863 150.216 92.3463 150.216ZM104.372 150.216C103.424 150.216 102.578 149.994 101.834 149.55C101.09 149.094 100.502 148.476 100.07 147.696C99.6377 146.916 99.4217 146.052 99.4217 145.104C99.4217 144.144 99.6377 143.28 100.07 142.512C100.502 141.744 101.09 141.132 101.834 140.676C102.59 140.22 103.43 139.992 104.354 139.992C105.098 139.992 105.758 140.142 106.334 140.442C106.922 140.73 107.384 141.138 107.72 141.666L107.36 142.152V136.374H109.718V150H107.486V148.11L107.738 148.578C107.402 149.106 106.934 149.514 106.334 149.802C105.734 150.078 105.08 150.216 104.372 150.216ZM104.624 148.056C105.164 148.056 105.638 147.93 106.046 147.678C106.454 147.426 106.772 147.078 107 146.634C107.24 146.19 107.36 145.68 107.36 145.104C107.36 144.54 107.24 144.036 107 143.592C106.772 143.136 106.454 142.782 106.046 142.53C105.638 142.278 105.164 142.152 104.624 142.152C104.096 142.152 103.622 142.284 103.202 142.548C102.782 142.8 102.452 143.148 102.212 143.592C101.984 144.024 101.87 144.528 101.87 145.104C101.87 145.68 101.984 146.19 102.212 146.634C102.452 147.078 102.782 147.426 103.202 147.678C103.622 147.93 104.096 148.056 104.624 148.056ZM116.699 150.216C115.739 150.216 114.863 149.994 114.071 149.55C113.291 149.106 112.667 148.5 112.199 147.732C111.743 146.964 111.515 146.088 111.515 145.104C111.515 144.12 111.743 143.244 112.199 142.476C112.667 141.708 113.291 141.102 114.071 140.658C114.851 140.214 115.727 139.992 116.699 139.992C117.659 139.992 118.529 140.214 119.309 140.658C120.089 141.102 120.707 141.708 121.163 142.476C121.631 143.232 121.865 144.108 121.865 145.104C121.865 146.088 121.631 146.964 121.163 147.732C120.695 148.5 120.071 149.106 119.291 149.55C118.511 149.994 117.647 150.216 116.699 150.216ZM116.699 148.056C117.227 148.056 117.689 147.93 118.085 147.678C118.493 147.426 118.811 147.078 119.039 146.634C119.279 146.178 119.399 145.668 119.399 145.104C119.399 144.528 119.279 144.024 119.039 143.592C118.811 143.148 118.493 142.8 118.085 142.548C117.689 142.284 117.227 142.152 116.699 142.152C116.159 142.152 115.685 142.284 115.277 142.548C114.869 142.8 114.545 143.148 114.305 143.592C114.077 144.024 113.963 144.528 113.963 145.104C113.963 145.668 114.077 146.178 114.305 146.634C114.545 147.078 114.869 147.426 115.277 147.678C115.685 147.93 116.159 148.056 116.699 148.056ZM127.38 150.216C126.336 150.216 125.424 149.97 124.644 149.478C123.876 148.974 123.348 148.296 123.06 147.444L124.824 146.598C125.076 147.15 125.424 147.582 125.868 147.894C126.324 148.206 126.828 148.362 127.38 148.362C127.812 148.362 128.154 148.266 128.406 148.074C128.658 147.882 128.784 147.63 128.784 147.318C128.784 147.126 128.73 146.97 128.622 146.85C128.526 146.718 128.388 146.61 128.208 146.526C128.04 146.43 127.854 146.352 127.65 146.292L126.048 145.842C125.22 145.602 124.59 145.236 124.158 144.744C123.738 144.252 123.528 143.67 123.528 142.998C123.528 142.398 123.678 141.876 123.978 141.432C124.29 140.976 124.716 140.622 125.256 140.37C125.808 140.118 126.438 139.992 127.146 139.992C128.07 139.992 128.886 140.214 129.594 140.658C130.302 141.102 130.806 141.726 131.106 142.53L129.306 143.376C129.138 142.932 128.856 142.578 128.46 142.314C128.064 142.05 127.62 141.918 127.128 141.918C126.732 141.918 126.42 142.008 126.192 142.188C125.964 142.368 125.85 142.602 125.85 142.89C125.85 143.07 125.898 143.226 125.994 143.358C126.09 143.49 126.222 143.598 126.39 143.682C126.57 143.766 126.774 143.844 127.002 143.916L128.568 144.384C129.372 144.624 129.99 144.984 130.422 145.464C130.866 145.944 131.088 146.532 131.088 147.228C131.088 147.816 130.932 148.338 130.62 148.794C130.308 149.238 129.876 149.586 129.324 149.838C128.772 150.09 128.124 150.216 127.38 150.216Z" fill="#94A3B8"/>
<rect x="60" width="49" height="49" rx="10" fill="#0093F7"/>
<path d="M86.1665 22.6667V14.5L75.6665 27.3333H83.8332L83.8332 35.5L94.3332 22.6667L86.1665 22.6667Z" stroke="white" stroke-width="2" stroke-linecap="round" stroke-linejoin="round"/>
</g>
<defs>
<filter id="filter0_d_199_2250" x="0.214284" y="0" width="169.571" height="186.571" filterUnits="userSpaceOnUse" color-interpolation-filters="sRGB">
<feFlood flood-opacity="0" result="BackgroundImageFix"/>
<feColorMatrix in="SourceAlpha" type="matrix" values="0 0 0 0 0 0 0 0 0 0 0 0 0 0 0 0 0 0 127 0" result="hardAlpha"/>
<feOffset dy="4.78572"/>
<feGaussianBlur stdDeviation="2.39286"/>
<feComposite in2="hardAlpha" operator="out"/>
<feColorMatrix type="matrix" values="0 0 0 0 0.1375 0 0 0 0 0.155242 0 0 0 0 0.4125 0 0 0 0.08 0"/>
<feBlend mode="normal" in2="BackgroundImageFix" result="effect1_dropShadow_199_2250"/>
<feBlend mode="normal" in="SourceGraphic" in2="effect1_dropShadow_199_2250" result="shape"/>
</filter>
</defs>
</svg>
