<svg width="30" height="30" viewBox="0 0 30 30" fill="none" xmlns="http://www.w3.org/2000/svg">
<path d="M5.8999 25.5001C5.8999 25.5001 10.7999 23.4001 12.1999 22.0001C13.5999 20.6001 9.3999 20.6001 9.3999 13.6001C9.3999 6.6001 14.9999 6.6001 14.9999 6.6001C14.9999 6.6001 20.5999 6.6001 20.5999 13.6001C20.5999 20.6001 16.3999 20.6001 17.7999 22.0001C19.1999 23.4001 24.0999 25.5001 24.0999 25.5001" stroke="#0093F7" stroke-opacity="0.5" stroke-width="2" stroke-linecap="round"/>
<path fill-rule="evenodd" clip-rule="evenodd" d="M15 29C22.732 29 29 22.732 29 15C29 7.26801 22.732 1 15 1C7.26801 1 1 7.26801 1 15C1 22.732 7.26801 29 15 29Z" stroke="#0093F7" stroke-opacity="0.5" stroke-width="2"/>
</svg>
